<mxfile host="Electron" modified="2024-05-10T16:20:28.893Z" agent="Mozilla/5.0 (X11; Linux x86_64) AppleWebKit/537.36 (KHTML, like Gecko) draw.io/24.2.5 Chrome/122.0.6261.156 Electron/29.3.0 Safari/537.36" etag="egbhiNi4RKxtxBYDyZHu" version="24.2.5" type="device">
  <diagram name="Page-1" id="4Ylcxh_aXTkbXbBuXBTT">
    <mxGraphModel dx="1770" dy="1067" grid="1" gridSize="10" guides="1" tooltips="1" connect="1" arrows="1" fold="1" page="1" pageScale="1" pageWidth="850" pageHeight="1100" math="1" shadow="0">
      <root>
        <mxCell id="0" />
        <mxCell id="1" parent="0" />
        <mxCell id="dvD0Abc87riAn_uQM0Sn-1" value="" style="rounded=0;whiteSpace=wrap;html=1;fillColor=none;strokeColor=#EA6B66;" parent="1" vertex="1">
          <mxGeometry x="190" y="260" width="590" height="440" as="geometry" />
        </mxCell>
        <mxCell id="kW-a0Cstb3fpqHScpxs_-1" value="`置換_0`" style="rounded=0;whiteSpace=wrap;html=1;fillColor=none;strokeColor=#6c8ebf;" parent="1" vertex="1">
          <mxGeometry x="230" y="295" width="40" height="380" as="geometry" />
        </mxCell>
        <mxCell id="dvD0Abc87riAn_uQM0Sn-2" value="" style="ellipse;whiteSpace=wrap;html=1;aspect=fixed;" parent="1" vertex="1">
          <mxGeometry x="783.25" y="315" width="20" height="20" as="geometry" />
        </mxCell>
        <mxCell id="dvD0Abc87riAn_uQM0Sn-3" value="" style="ellipse;whiteSpace=wrap;html=1;aspect=fixed;" parent="1" vertex="1">
          <mxGeometry x="783.25" y="355" width="20" height="20" as="geometry" />
        </mxCell>
        <mxCell id="dvD0Abc87riAn_uQM0Sn-4" value="" style="ellipse;whiteSpace=wrap;html=1;aspect=fixed;" parent="1" vertex="1">
          <mxGeometry x="783.25" y="395" width="20" height="20" as="geometry" />
        </mxCell>
        <mxCell id="dvD0Abc87riAn_uQM0Sn-5" value="" style="ellipse;whiteSpace=wrap;html=1;aspect=fixed;" parent="1" vertex="1">
          <mxGeometry x="783.25" y="435" width="20" height="20" as="geometry" />
        </mxCell>
        <mxCell id="dvD0Abc87riAn_uQM0Sn-6" value="`X_0`" style="text;html=1;align=center;verticalAlign=middle;whiteSpace=wrap;rounded=0;fontSize=16;" parent="1" vertex="1">
          <mxGeometry x="793.25" y="310" width="60" height="30" as="geometry" />
        </mxCell>
        <mxCell id="dvD0Abc87riAn_uQM0Sn-7" value="`X_1`" style="text;html=1;align=center;verticalAlign=middle;whiteSpace=wrap;rounded=0;fontSize=16;" parent="1" vertex="1">
          <mxGeometry x="793.25" y="350" width="60" height="30" as="geometry" />
        </mxCell>
        <mxCell id="dvD0Abc87riAn_uQM0Sn-8" value="`X_2`" style="text;html=1;align=center;verticalAlign=middle;whiteSpace=wrap;rounded=0;fontSize=16;" parent="1" vertex="1">
          <mxGeometry x="793.25" y="390" width="60" height="30" as="geometry" />
        </mxCell>
        <mxCell id="dvD0Abc87riAn_uQM0Sn-9" value="`X_3`" style="text;html=1;align=center;verticalAlign=middle;whiteSpace=wrap;rounded=0;fontSize=16;" parent="1" vertex="1">
          <mxGeometry x="793.25" y="430" width="60" height="30" as="geometry" />
        </mxCell>
        <mxCell id="dvD0Abc87riAn_uQM0Sn-10" value="" style="endArrow=none;html=1;rounded=0;exitX=1;exitY=0.25;exitDx=0;exitDy=0;entryX=0;entryY=0.5;entryDx=0;entryDy=0;" parent="1" source="dvD0Abc87riAn_uQM0Sn-22" target="dvD0Abc87riAn_uQM0Sn-2" edge="1">
          <mxGeometry width="50" height="50" relative="1" as="geometry">
            <mxPoint x="307" y="325" as="sourcePoint" />
            <mxPoint x="253.25" y="505" as="targetPoint" />
          </mxGeometry>
        </mxCell>
        <mxCell id="dvD0Abc87riAn_uQM0Sn-11" value="" style="endArrow=none;html=1;rounded=0;exitX=0.994;exitY=0.442;exitDx=0;exitDy=0;entryX=0;entryY=0.5;entryDx=0;entryDy=0;exitPerimeter=0;" parent="1" source="dvD0Abc87riAn_uQM0Sn-22" target="dvD0Abc87riAn_uQM0Sn-3" edge="1">
          <mxGeometry width="50" height="50" relative="1" as="geometry">
            <mxPoint x="307" y="365" as="sourcePoint" />
            <mxPoint x="659.25" y="364.5" as="targetPoint" />
          </mxGeometry>
        </mxCell>
        <mxCell id="dvD0Abc87riAn_uQM0Sn-12" value="" style="endArrow=none;html=1;rounded=0;exitX=1.009;exitY=0.65;exitDx=0;exitDy=0;entryX=0;entryY=0.5;entryDx=0;entryDy=0;exitPerimeter=0;" parent="1" source="dvD0Abc87riAn_uQM0Sn-22" target="dvD0Abc87riAn_uQM0Sn-4" edge="1">
          <mxGeometry width="50" height="50" relative="1" as="geometry">
            <mxPoint x="509.99999999996703" y="405" as="sourcePoint" />
            <mxPoint x="926" y="404.5" as="targetPoint" />
          </mxGeometry>
        </mxCell>
        <mxCell id="dvD0Abc87riAn_uQM0Sn-13" value="" style="endArrow=none;html=1;rounded=0;exitX=0.997;exitY=0.86;exitDx=0;exitDy=0;entryX=0;entryY=0.5;entryDx=0;entryDy=0;exitPerimeter=0;" parent="1" source="dvD0Abc87riAn_uQM0Sn-22" target="dvD0Abc87riAn_uQM0Sn-5" edge="1">
          <mxGeometry width="50" height="50" relative="1" as="geometry">
            <mxPoint x="509.99999999996703" y="445" as="sourcePoint" />
            <mxPoint x="926" y="444.5" as="targetPoint" />
          </mxGeometry>
        </mxCell>
        <mxCell id="dvD0Abc87riAn_uQM0Sn-14" value="" style="ellipse;whiteSpace=wrap;html=1;aspect=fixed;fillColor=#000000;" parent="1" vertex="1">
          <mxGeometry x="538.25" y="439" width="11" height="11" as="geometry" />
        </mxCell>
        <mxCell id="dvD0Abc87riAn_uQM0Sn-15" value="" style="ellipse;whiteSpace=wrap;html=1;aspect=fixed;fillColor=#000000;" parent="1" vertex="1">
          <mxGeometry x="538.25" y="399" width="11" height="11" as="geometry" />
        </mxCell>
        <mxCell id="dvD0Abc87riAn_uQM0Sn-16" value="" style="ellipse;whiteSpace=wrap;html=1;aspect=fixed;fillColor=#000000;" parent="1" vertex="1">
          <mxGeometry x="538.25" y="359" width="11" height="11" as="geometry" />
        </mxCell>
        <mxCell id="dvD0Abc87riAn_uQM0Sn-17" value="" style="ellipse;whiteSpace=wrap;html=1;aspect=fixed;fillColor=#dae8fc;strokeColor=#6c8ebf;" parent="1" vertex="1">
          <mxGeometry x="538.25" y="319" width="11" height="11" as="geometry" />
        </mxCell>
        <mxCell id="dvD0Abc87riAn_uQM0Sn-18" value="" style="ellipse;whiteSpace=wrap;html=1;aspect=fixed;fillColor=#000000;" parent="1" vertex="1">
          <mxGeometry x="718.25" y="439" width="11" height="11" as="geometry" />
        </mxCell>
        <mxCell id="dvD0Abc87riAn_uQM0Sn-19" value="" style="ellipse;whiteSpace=wrap;html=1;aspect=fixed;fillColor=#000000;" parent="1" vertex="1">
          <mxGeometry x="718.25" y="399" width="11" height="11" as="geometry" />
        </mxCell>
        <mxCell id="dvD0Abc87riAn_uQM0Sn-20" value="" style="ellipse;whiteSpace=wrap;html=1;aspect=fixed;fillColor=#000000;" parent="1" vertex="1">
          <mxGeometry x="718.25" y="359" width="11" height="11" as="geometry" />
        </mxCell>
        <mxCell id="dvD0Abc87riAn_uQM0Sn-21" value="" style="ellipse;whiteSpace=wrap;html=1;aspect=fixed;fillColor=#000000;strokeColor=none;" parent="1" vertex="1">
          <mxGeometry x="718.25" y="319" width="11" height="11" as="geometry" />
        </mxCell>
        <mxCell id="dvD0Abc87riAn_uQM0Sn-22" value="4 点 DFT" style="rounded=0;whiteSpace=wrap;html=1;fillColor=none;strokeColor=#EA6B66;" parent="1" vertex="1">
          <mxGeometry x="310" y="275" width="130" height="200" as="geometry" />
        </mxCell>
        <mxCell id="dvD0Abc87riAn_uQM0Sn-23" value="" style="ellipse;whiteSpace=wrap;html=1;aspect=fixed;" parent="1" vertex="1">
          <mxGeometry x="783.25" y="525" width="20" height="20" as="geometry" />
        </mxCell>
        <mxCell id="dvD0Abc87riAn_uQM0Sn-24" value="" style="ellipse;whiteSpace=wrap;html=1;aspect=fixed;" parent="1" vertex="1">
          <mxGeometry x="783.25" y="565" width="20" height="20" as="geometry" />
        </mxCell>
        <mxCell id="dvD0Abc87riAn_uQM0Sn-25" value="" style="ellipse;whiteSpace=wrap;html=1;aspect=fixed;" parent="1" vertex="1">
          <mxGeometry x="783.25" y="605" width="20" height="20" as="geometry" />
        </mxCell>
        <mxCell id="dvD0Abc87riAn_uQM0Sn-26" value="" style="ellipse;whiteSpace=wrap;html=1;aspect=fixed;" parent="1" vertex="1">
          <mxGeometry x="783.25" y="645" width="20" height="20" as="geometry" />
        </mxCell>
        <mxCell id="dvD0Abc87riAn_uQM0Sn-27" value="`X_4`" style="text;html=1;align=center;verticalAlign=middle;whiteSpace=wrap;rounded=0;fontSize=16;" parent="1" vertex="1">
          <mxGeometry x="793.25" y="520" width="60" height="30" as="geometry" />
        </mxCell>
        <mxCell id="dvD0Abc87riAn_uQM0Sn-28" value="`X_5`" style="text;html=1;align=center;verticalAlign=middle;whiteSpace=wrap;rounded=0;fontSize=16;" parent="1" vertex="1">
          <mxGeometry x="793.25" y="560" width="60" height="30" as="geometry" />
        </mxCell>
        <mxCell id="dvD0Abc87riAn_uQM0Sn-29" value="`X_6`" style="text;html=1;align=center;verticalAlign=middle;whiteSpace=wrap;rounded=0;fontSize=16;" parent="1" vertex="1">
          <mxGeometry x="793.25" y="600" width="60" height="30" as="geometry" />
        </mxCell>
        <mxCell id="dvD0Abc87riAn_uQM0Sn-30" value="`X_7`" style="text;html=1;align=center;verticalAlign=middle;whiteSpace=wrap;rounded=0;fontSize=16;" parent="1" vertex="1">
          <mxGeometry x="793.25" y="640" width="60" height="30" as="geometry" />
        </mxCell>
        <mxCell id="dvD0Abc87riAn_uQM0Sn-31" value="" style="ellipse;whiteSpace=wrap;html=1;aspect=fixed;fillColor=#000000;" parent="1" vertex="1">
          <mxGeometry x="538.25" y="649" width="11" height="11" as="geometry" />
        </mxCell>
        <mxCell id="dvD0Abc87riAn_uQM0Sn-32" value="" style="ellipse;whiteSpace=wrap;html=1;aspect=fixed;fillColor=#000000;" parent="1" vertex="1">
          <mxGeometry x="538.25" y="609" width="11" height="11" as="geometry" />
        </mxCell>
        <mxCell id="dvD0Abc87riAn_uQM0Sn-33" value="" style="ellipse;whiteSpace=wrap;html=1;aspect=fixed;fillColor=#000000;" parent="1" vertex="1">
          <mxGeometry x="538.25" y="569" width="11" height="11" as="geometry" />
        </mxCell>
        <mxCell id="dvD0Abc87riAn_uQM0Sn-34" value="" style="ellipse;whiteSpace=wrap;html=1;aspect=fixed;fillColor=#000000;strokeColor=none;" parent="1" vertex="1">
          <mxGeometry x="538.25" y="529" width="11" height="11" as="geometry" />
        </mxCell>
        <mxCell id="dvD0Abc87riAn_uQM0Sn-35" value="" style="ellipse;whiteSpace=wrap;html=1;aspect=fixed;fillColor=#000000;" parent="1" vertex="1">
          <mxGeometry x="718.25" y="649" width="11" height="11" as="geometry" />
        </mxCell>
        <mxCell id="dvD0Abc87riAn_uQM0Sn-36" value="" style="ellipse;whiteSpace=wrap;html=1;aspect=fixed;fillColor=#000000;" parent="1" vertex="1">
          <mxGeometry x="718.25" y="609" width="11" height="11" as="geometry" />
        </mxCell>
        <mxCell id="dvD0Abc87riAn_uQM0Sn-37" value="" style="ellipse;whiteSpace=wrap;html=1;aspect=fixed;fillColor=#000000;" parent="1" vertex="1">
          <mxGeometry x="718.25" y="569" width="11" height="11" as="geometry" />
        </mxCell>
        <mxCell id="dvD0Abc87riAn_uQM0Sn-38" value="" style="ellipse;whiteSpace=wrap;html=1;aspect=fixed;fillColor=#000000;strokeColor=none;" parent="1" vertex="1">
          <mxGeometry x="718.25" y="529" width="11" height="11" as="geometry" />
        </mxCell>
        <mxCell id="dvD0Abc87riAn_uQM0Sn-39" value="" style="endArrow=none;html=1;rounded=0;entryX=0;entryY=1;entryDx=0;entryDy=0;" parent="1" target="dvD0Abc87riAn_uQM0Sn-20" edge="1">
          <mxGeometry width="50" height="50" relative="1" as="geometry">
            <mxPoint x="543.25" y="575" as="sourcePoint" />
            <mxPoint x="725.1800000000001" y="374.93" as="targetPoint" />
          </mxGeometry>
        </mxCell>
        <mxCell id="dvD0Abc87riAn_uQM0Sn-40" value="" style="endArrow=none;html=1;rounded=0;exitX=1;exitY=0;exitDx=0;exitDy=0;" parent="1" source="dvD0Abc87riAn_uQM0Sn-32" edge="1">
          <mxGeometry width="50" height="50" relative="1" as="geometry">
            <mxPoint x="559.25" y="621" as="sourcePoint" />
            <mxPoint x="723.25" y="405" as="targetPoint" />
          </mxGeometry>
        </mxCell>
        <mxCell id="dvD0Abc87riAn_uQM0Sn-41" value="" style="endArrow=none;html=1;rounded=0;exitX=1;exitY=0;exitDx=0;exitDy=0;entryX=0;entryY=1;entryDx=0;entryDy=0;" parent="1" source="dvD0Abc87riAn_uQM0Sn-31" target="dvD0Abc87riAn_uQM0Sn-18" edge="1">
          <mxGeometry width="50" height="50" relative="1" as="geometry">
            <mxPoint x="559.25" y="661" as="sourcePoint" />
            <mxPoint x="725.25" y="455" as="targetPoint" />
          </mxGeometry>
        </mxCell>
        <mxCell id="dvD0Abc87riAn_uQM0Sn-42" value="" style="endArrow=none;html=1;rounded=0;exitX=0;exitY=0;exitDx=0;exitDy=0;entryX=1;entryY=1;entryDx=0;entryDy=0;fillColor=#e1d5e7;strokeColor=default;" parent="1" source="dvD0Abc87riAn_uQM0Sn-38" target="dvD0Abc87riAn_uQM0Sn-17" edge="1">
          <mxGeometry width="50" height="50" relative="1" as="geometry">
            <mxPoint x="599.25" y="535" as="sourcePoint" />
            <mxPoint x="559.25" y="325" as="targetPoint" />
          </mxGeometry>
        </mxCell>
        <mxCell id="dvD0Abc87riAn_uQM0Sn-43" value="" style="endArrow=none;html=1;rounded=0;exitX=0;exitY=0;exitDx=0;exitDy=0;entryX=1;entryY=1;entryDx=0;entryDy=0;" parent="1" target="dvD0Abc87riAn_uQM0Sn-16" edge="1">
          <mxGeometry width="50" height="50" relative="1" as="geometry">
            <mxPoint x="723.25" y="578" as="sourcePoint" />
            <mxPoint x="557.25" y="372" as="targetPoint" />
          </mxGeometry>
        </mxCell>
        <mxCell id="dvD0Abc87riAn_uQM0Sn-44" value="" style="endArrow=none;html=1;rounded=0;exitX=0;exitY=0;exitDx=0;exitDy=0;entryX=1;entryY=1;entryDx=0;entryDy=0;" parent="1" target="dvD0Abc87riAn_uQM0Sn-15" edge="1">
          <mxGeometry width="50" height="50" relative="1" as="geometry">
            <mxPoint x="725.25" y="615" as="sourcePoint" />
            <mxPoint x="559.25" y="409" as="targetPoint" />
          </mxGeometry>
        </mxCell>
        <mxCell id="dvD0Abc87riAn_uQM0Sn-45" value="" style="endArrow=none;html=1;rounded=0;exitX=0;exitY=0;exitDx=0;exitDy=0;entryX=1;entryY=0;entryDx=0;entryDy=0;" parent="1" target="dvD0Abc87riAn_uQM0Sn-14" edge="1">
          <mxGeometry width="50" height="50" relative="1" as="geometry">
            <mxPoint x="722.25" y="658" as="sourcePoint" />
            <mxPoint x="556.25" y="452" as="targetPoint" />
          </mxGeometry>
        </mxCell>
        <mxCell id="dvD0Abc87riAn_uQM0Sn-46" value="`W_8^0`" style="text;html=1;align=center;verticalAlign=middle;whiteSpace=wrap;rounded=0;fontSize=16;rotation=0;" parent="1" vertex="1">
          <mxGeometry x="493.25" y="535" width="60" height="30" as="geometry" />
        </mxCell>
        <mxCell id="dvD0Abc87riAn_uQM0Sn-47" value="`W_8^1`" style="text;html=1;align=center;verticalAlign=middle;whiteSpace=wrap;rounded=0;fontSize=16;" parent="1" vertex="1">
          <mxGeometry x="493.25" y="575" width="60" height="30" as="geometry" />
        </mxCell>
        <mxCell id="dvD0Abc87riAn_uQM0Sn-48" value="`W_8^2`" style="text;html=1;align=center;verticalAlign=middle;whiteSpace=wrap;rounded=0;fontSize=16;" parent="1" vertex="1">
          <mxGeometry x="493.25" y="615" width="60" height="30" as="geometry" />
        </mxCell>
        <mxCell id="dvD0Abc87riAn_uQM0Sn-49" value="`W_8^3`" style="text;html=1;align=center;verticalAlign=middle;whiteSpace=wrap;rounded=0;fontSize=16;" parent="1" vertex="1">
          <mxGeometry x="493.25" y="655" width="60" height="30" as="geometry" />
        </mxCell>
        <mxCell id="dvD0Abc87riAn_uQM0Sn-50" value="" style="ellipse;whiteSpace=wrap;html=1;aspect=fixed;" parent="1" vertex="1">
          <mxGeometry x="140" y="310" width="20" height="20" as="geometry" />
        </mxCell>
        <mxCell id="dvD0Abc87riAn_uQM0Sn-51" value="" style="ellipse;whiteSpace=wrap;html=1;aspect=fixed;" parent="1" vertex="1">
          <mxGeometry x="140" y="365" width="20" height="20" as="geometry" />
        </mxCell>
        <mxCell id="dvD0Abc87riAn_uQM0Sn-52" value="" style="ellipse;whiteSpace=wrap;html=1;aspect=fixed;" parent="1" vertex="1">
          <mxGeometry x="140" y="415" width="20" height="20" as="geometry" />
        </mxCell>
        <mxCell id="dvD0Abc87riAn_uQM0Sn-53" value="" style="ellipse;whiteSpace=wrap;html=1;aspect=fixed;" parent="1" vertex="1">
          <mxGeometry x="140" y="460" width="20" height="20" as="geometry" />
        </mxCell>
        <mxCell id="dvD0Abc87riAn_uQM0Sn-54" value="`x_0`" style="text;html=1;align=center;verticalAlign=middle;whiteSpace=wrap;rounded=0;fontSize=16;" parent="1" vertex="1">
          <mxGeometry x="90" y="305" width="60" height="30" as="geometry" />
        </mxCell>
        <mxCell id="dvD0Abc87riAn_uQM0Sn-55" value="&lt;sup style=&quot;font-size: 17px;&quot;&gt;`x_1`&lt;/sup&gt;" style="text;html=1;align=center;verticalAlign=middle;whiteSpace=wrap;rounded=0;fontSize=17;" parent="1" vertex="1">
          <mxGeometry x="90" y="360" width="60" height="30" as="geometry" />
        </mxCell>
        <mxCell id="dvD0Abc87riAn_uQM0Sn-56" value="`x_2`" style="text;html=1;align=center;verticalAlign=middle;whiteSpace=wrap;rounded=0;fontSize=16;" parent="1" vertex="1">
          <mxGeometry x="90" y="410" width="60" height="30" as="geometry" />
        </mxCell>
        <mxCell id="dvD0Abc87riAn_uQM0Sn-57" value="`x_3`" style="text;html=1;align=center;verticalAlign=middle;whiteSpace=wrap;rounded=0;fontSize=16;" parent="1" vertex="1">
          <mxGeometry x="90" y="455" width="60" height="30" as="geometry" />
        </mxCell>
        <mxCell id="dvD0Abc87riAn_uQM0Sn-58" value="" style="ellipse;whiteSpace=wrap;html=1;aspect=fixed;" parent="1" vertex="1">
          <mxGeometry x="140" y="511" width="20" height="20" as="geometry" />
        </mxCell>
        <mxCell id="dvD0Abc87riAn_uQM0Sn-59" value="" style="ellipse;whiteSpace=wrap;html=1;aspect=fixed;" parent="1" vertex="1">
          <mxGeometry x="140" y="555" width="20" height="20" as="geometry" />
        </mxCell>
        <mxCell id="dvD0Abc87riAn_uQM0Sn-60" value="" style="ellipse;whiteSpace=wrap;html=1;aspect=fixed;" parent="1" vertex="1">
          <mxGeometry x="140" y="605" width="20" height="20" as="geometry" />
        </mxCell>
        <mxCell id="dvD0Abc87riAn_uQM0Sn-61" value="" style="ellipse;whiteSpace=wrap;html=1;aspect=fixed;" parent="1" vertex="1">
          <mxGeometry x="140" y="650" width="20" height="20" as="geometry" />
        </mxCell>
        <mxCell id="dvD0Abc87riAn_uQM0Sn-62" value="`x_4`" style="text;html=1;align=center;verticalAlign=middle;whiteSpace=wrap;rounded=0;fontSize=16;" parent="1" vertex="1">
          <mxGeometry x="90" y="506" width="60" height="30" as="geometry" />
        </mxCell>
        <mxCell id="dvD0Abc87riAn_uQM0Sn-63" value="`x_5`" style="text;html=1;align=center;verticalAlign=middle;whiteSpace=wrap;rounded=0;fontSize=16;" parent="1" vertex="1">
          <mxGeometry x="90" y="550" width="60" height="30" as="geometry" />
        </mxCell>
        <mxCell id="dvD0Abc87riAn_uQM0Sn-64" value="`x_6`" style="text;html=1;align=center;verticalAlign=middle;whiteSpace=wrap;rounded=0;fontSize=16;" parent="1" vertex="1">
          <mxGeometry x="90" y="600" width="60" height="30" as="geometry" />
        </mxCell>
        <mxCell id="dvD0Abc87riAn_uQM0Sn-65" value="`x_7`" style="text;html=1;align=center;verticalAlign=middle;whiteSpace=wrap;rounded=0;fontSize=16;" parent="1" vertex="1">
          <mxGeometry x="90" y="645" width="60" height="30" as="geometry" />
        </mxCell>
        <mxCell id="dvD0Abc87riAn_uQM0Sn-66" value="" style="endArrow=none;html=1;rounded=0;entryX=0;entryY=0.5;entryDx=0;entryDy=0;" parent="1" target="dvD0Abc87riAn_uQM0Sn-67" edge="1">
          <mxGeometry width="50" height="50" relative="1" as="geometry">
            <mxPoint x="160" y="320" as="sourcePoint" />
            <mxPoint x="230" y="320" as="targetPoint" />
          </mxGeometry>
        </mxCell>
        <mxCell id="dvD0Abc87riAn_uQM0Sn-67" value="" style="ellipse;whiteSpace=wrap;html=1;aspect=fixed;fillColor=#dae8fc;strokeColor=#6c8ebf;" parent="1" vertex="1">
          <mxGeometry x="210" y="310" width="20" height="20" as="geometry" />
        </mxCell>
        <mxCell id="dvD0Abc87riAn_uQM0Sn-68" value="" style="ellipse;whiteSpace=wrap;html=1;aspect=fixed;" parent="1" vertex="1">
          <mxGeometry x="210" y="365" width="20" height="20" as="geometry" />
        </mxCell>
        <mxCell id="dvD0Abc87riAn_uQM0Sn-69" value="" style="ellipse;whiteSpace=wrap;html=1;aspect=fixed;fillColor=#dae8fc;strokeColor=#6c8ebf;" parent="1" vertex="1">
          <mxGeometry x="210" y="415" width="20" height="20" as="geometry" />
        </mxCell>
        <mxCell id="dvD0Abc87riAn_uQM0Sn-70" value="" style="ellipse;whiteSpace=wrap;html=1;aspect=fixed;fillColor=#dae8fc;strokeColor=#6c8ebf;" parent="1" vertex="1">
          <mxGeometry x="210" y="510" width="20" height="20" as="geometry" />
        </mxCell>
        <mxCell id="dvD0Abc87riAn_uQM0Sn-71" value="" style="ellipse;whiteSpace=wrap;html=1;aspect=fixed;" parent="1" vertex="1">
          <mxGeometry x="210" y="555" width="20" height="20" as="geometry" />
        </mxCell>
        <mxCell id="dvD0Abc87riAn_uQM0Sn-72" value="" style="ellipse;whiteSpace=wrap;html=1;aspect=fixed;fillColor=#dae8fc;strokeColor=#6c8ebf;" parent="1" vertex="1">
          <mxGeometry x="210" y="605" width="20" height="20" as="geometry" />
        </mxCell>
        <mxCell id="dvD0Abc87riAn_uQM0Sn-73" value="" style="ellipse;whiteSpace=wrap;html=1;aspect=fixed;" parent="1" vertex="1">
          <mxGeometry x="210" y="650" width="20" height="20" as="geometry" />
        </mxCell>
        <mxCell id="dvD0Abc87riAn_uQM0Sn-74" value="" style="endArrow=none;html=1;rounded=0;" parent="1" edge="1">
          <mxGeometry width="50" height="50" relative="1" as="geometry">
            <mxPoint x="160" y="375" as="sourcePoint" />
            <mxPoint x="210" y="375" as="targetPoint" />
          </mxGeometry>
        </mxCell>
        <mxCell id="dvD0Abc87riAn_uQM0Sn-75" value="" style="endArrow=none;html=1;rounded=0;entryX=0;entryY=0.5;entryDx=0;entryDy=0;" parent="1" target="dvD0Abc87riAn_uQM0Sn-70" edge="1">
          <mxGeometry width="50" height="50" relative="1" as="geometry">
            <mxPoint x="160" y="520" as="sourcePoint" />
            <mxPoint x="230" y="520" as="targetPoint" />
          </mxGeometry>
        </mxCell>
        <mxCell id="dvD0Abc87riAn_uQM0Sn-76" value="" style="endArrow=none;html=1;rounded=0;entryX=0;entryY=0.5;entryDx=0;entryDy=0;exitX=1;exitY=0.5;exitDx=0;exitDy=0;" parent="1" source="dvD0Abc87riAn_uQM0Sn-59" target="dvD0Abc87riAn_uQM0Sn-71" edge="1">
          <mxGeometry width="50" height="50" relative="1" as="geometry">
            <mxPoint x="160" y="564" as="sourcePoint" />
            <mxPoint x="230" y="564" as="targetPoint" />
          </mxGeometry>
        </mxCell>
        <mxCell id="dvD0Abc87riAn_uQM0Sn-77" value="" style="endArrow=none;html=1;rounded=0;entryX=0;entryY=0.5;entryDx=0;entryDy=0;exitX=1;exitY=0.5;exitDx=0;exitDy=0;" parent="1" source="dvD0Abc87riAn_uQM0Sn-60" target="dvD0Abc87riAn_uQM0Sn-72" edge="1">
          <mxGeometry width="50" height="50" relative="1" as="geometry">
            <mxPoint x="160" y="614.5" as="sourcePoint" />
            <mxPoint x="230" y="614.5" as="targetPoint" />
          </mxGeometry>
        </mxCell>
        <mxCell id="dvD0Abc87riAn_uQM0Sn-78" value="" style="endArrow=none;html=1;rounded=0;entryX=0;entryY=0.5;entryDx=0;entryDy=0;" parent="1" target="dvD0Abc87riAn_uQM0Sn-73" edge="1">
          <mxGeometry width="50" height="50" relative="1" as="geometry">
            <mxPoint x="160" y="660" as="sourcePoint" />
            <mxPoint x="200" y="660" as="targetPoint" />
          </mxGeometry>
        </mxCell>
        <mxCell id="dvD0Abc87riAn_uQM0Sn-79" value="" style="endArrow=none;html=1;rounded=0;entryX=0;entryY=0.5;entryDx=0;entryDy=0;exitX=1;exitY=0.5;exitDx=0;exitDy=0;exitPerimeter=0;" parent="1" source="dvD0Abc87riAn_uQM0Sn-52" target="dvD0Abc87riAn_uQM0Sn-69" edge="1">
          <mxGeometry width="50" height="50" relative="1" as="geometry">
            <mxPoint x="160" y="420" as="sourcePoint" />
            <mxPoint x="290" y="581.76" as="targetPoint" />
          </mxGeometry>
        </mxCell>
        <mxCell id="dvD0Abc87riAn_uQM0Sn-80" value="" style="ellipse;whiteSpace=wrap;html=1;aspect=fixed;fillColor=#000000;strokeColor=none;" parent="1" vertex="1">
          <mxGeometry x="538.25" y="319" width="11" height="11" as="geometry" />
        </mxCell>
        <mxCell id="dvD0Abc87riAn_uQM0Sn-81" value="" style="endArrow=none;html=1;rounded=0;entryX=0;entryY=0.5;entryDx=0;entryDy=0;fillColor=#e1d5e7;strokeColor=default;" parent="1" target="dvD0Abc87riAn_uQM0Sn-21" edge="1">
          <mxGeometry width="50" height="50" relative="1" as="geometry">
            <mxPoint x="543.25" y="535" as="sourcePoint" />
            <mxPoint x="722.25" y="332" as="targetPoint" />
          </mxGeometry>
        </mxCell>
        <mxCell id="dvD0Abc87riAn_uQM0Sn-82" value="&lt;span style=&quot;white-space: pre;&quot;&gt;&#x9;&lt;/span&gt;$$\mathit{DFT}_8(\{x_k\}_k) = (\ \mathit{butterfly}_8&amp;nbsp;\circ (\mathit{DFT}_4, \mathit{DFT}_4) \circ \mathit{permutation}_0) (\{x_k\}_k)$$" style="text;html=1;align=center;verticalAlign=middle;whiteSpace=wrap;rounded=0;fontSize=16;" parent="1" vertex="1">
          <mxGeometry x="410" y="206" width="150" height="60" as="geometry" />
        </mxCell>
        <mxCell id="dvD0Abc87riAn_uQM0Sn-83" value="" style="ellipse;whiteSpace=wrap;html=1;aspect=fixed;fillColor=#dae8fc;strokeColor=#6c8ebf;" parent="1" vertex="1">
          <mxGeometry x="270" y="315" width="20" height="20" as="geometry" />
        </mxCell>
        <mxCell id="dvD0Abc87riAn_uQM0Sn-84" value="" style="ellipse;whiteSpace=wrap;html=1;aspect=fixed;fillColor=#dae8fc;strokeColor=#6c8ebf;" parent="1" vertex="1">
          <mxGeometry x="270" y="355" width="20" height="20" as="geometry" />
        </mxCell>
        <mxCell id="dvD0Abc87riAn_uQM0Sn-85" value="`x_4`" style="text;html=1;align=center;verticalAlign=middle;whiteSpace=wrap;rounded=0;fontSize=16;" parent="1" vertex="1">
          <mxGeometry x="260" y="370" width="60" height="30" as="geometry" />
        </mxCell>
        <mxCell id="dvD0Abc87riAn_uQM0Sn-86" value="`x_0`" style="text;html=1;align=center;verticalAlign=middle;whiteSpace=wrap;rounded=0;fontSize=16;" parent="1" vertex="1">
          <mxGeometry x="260" y="289" width="60" height="30" as="geometry" />
        </mxCell>
        <mxCell id="dvD0Abc87riAn_uQM0Sn-87" value="" style="ellipse;whiteSpace=wrap;html=1;aspect=fixed;fillColor=#dae8fc;strokeColor=#6c8ebf;" parent="1" vertex="1">
          <mxGeometry x="270" y="395" width="20" height="20" as="geometry" />
        </mxCell>
        <mxCell id="dvD0Abc87riAn_uQM0Sn-88" value="" style="ellipse;whiteSpace=wrap;html=1;aspect=fixed;fillColor=#dae8fc;strokeColor=#6c8ebf;" parent="1" vertex="1">
          <mxGeometry x="270" y="435" width="20" height="20" as="geometry" />
        </mxCell>
        <mxCell id="dvD0Abc87riAn_uQM0Sn-89" value="`x_2`" style="text;html=1;align=center;verticalAlign=middle;whiteSpace=wrap;rounded=0;fontSize=16;" parent="1" vertex="1">
          <mxGeometry x="260" y="330" width="60" height="30" as="geometry" />
        </mxCell>
        <mxCell id="dvD0Abc87riAn_uQM0Sn-90" value="" style="endArrow=none;html=1;rounded=0;" parent="1" target="dvD0Abc87riAn_uQM0Sn-91" edge="1">
          <mxGeometry width="50" height="50" relative="1" as="geometry">
            <mxPoint x="160" y="469.5" as="sourcePoint" />
            <mxPoint x="230" y="469.5" as="targetPoint" />
          </mxGeometry>
        </mxCell>
        <mxCell id="dvD0Abc87riAn_uQM0Sn-91" value="" style="ellipse;whiteSpace=wrap;html=1;aspect=fixed;" parent="1" vertex="1">
          <mxGeometry x="210" y="460" width="20" height="20" as="geometry" />
        </mxCell>
        <mxCell id="dvD0Abc87riAn_uQM0Sn-92" value="`x_6`" style="text;html=1;align=center;verticalAlign=middle;whiteSpace=wrap;rounded=0;fontSize=16;" parent="1" vertex="1">
          <mxGeometry x="260" y="415" width="60" height="30" as="geometry" />
        </mxCell>
        <mxCell id="dvD0Abc87riAn_uQM0Sn-98" value="" style="endArrow=none;html=1;rounded=0;exitX=1;exitY=0.5;exitDx=0;exitDy=0;entryX=0;entryY=0.25;entryDx=0;entryDy=0;" parent="1" source="dvD0Abc87riAn_uQM0Sn-83" target="dvD0Abc87riAn_uQM0Sn-22" edge="1">
          <mxGeometry width="50" height="50" relative="1" as="geometry">
            <mxPoint x="344.78" y="390" as="sourcePoint" />
            <mxPoint x="320" y="325" as="targetPoint" />
            <Array as="points" />
          </mxGeometry>
        </mxCell>
        <mxCell id="dvD0Abc87riAn_uQM0Sn-103" value="`x_5`" style="text;html=1;align=center;verticalAlign=middle;whiteSpace=wrap;rounded=0;fontSize=16;" parent="1" vertex="1">
          <mxGeometry x="260" y="585" width="60" height="30" as="geometry" />
        </mxCell>
        <mxCell id="dvD0Abc87riAn_uQM0Sn-104" value="`x_1`" style="text;html=1;align=center;verticalAlign=middle;whiteSpace=wrap;rounded=0;fontSize=16;" parent="1" vertex="1">
          <mxGeometry x="260" y="501" width="60" height="30" as="geometry" />
        </mxCell>
        <mxCell id="dvD0Abc87riAn_uQM0Sn-105" value="`x_3`" style="text;html=1;align=center;verticalAlign=middle;whiteSpace=wrap;rounded=0;fontSize=16;" parent="1" vertex="1">
          <mxGeometry x="260" y="545" width="60" height="30" as="geometry" />
        </mxCell>
        <mxCell id="dvD0Abc87riAn_uQM0Sn-106" value="`x_7`" style="text;html=1;align=center;verticalAlign=middle;whiteSpace=wrap;rounded=0;fontSize=16;" parent="1" vertex="1">
          <mxGeometry x="260" y="624" width="60" height="25" as="geometry" />
        </mxCell>
        <mxCell id="dvD0Abc87riAn_uQM0Sn-107" value="" style="ellipse;whiteSpace=wrap;html=1;aspect=fixed;" parent="1" vertex="1">
          <mxGeometry x="463.25" y="315" width="20" height="20" as="geometry" />
        </mxCell>
        <mxCell id="dvD0Abc87riAn_uQM0Sn-108" value="" style="ellipse;whiteSpace=wrap;html=1;aspect=fixed;" parent="1" vertex="1">
          <mxGeometry x="463.25" y="355" width="20" height="20" as="geometry" />
        </mxCell>
        <mxCell id="dvD0Abc87riAn_uQM0Sn-109" value="" style="ellipse;whiteSpace=wrap;html=1;aspect=fixed;" parent="1" vertex="1">
          <mxGeometry x="463.25" y="395" width="20" height="20" as="geometry" />
        </mxCell>
        <mxCell id="dvD0Abc87riAn_uQM0Sn-110" value="" style="ellipse;whiteSpace=wrap;html=1;aspect=fixed;" parent="1" vertex="1">
          <mxGeometry x="463.25" y="435" width="20" height="20" as="geometry" />
        </mxCell>
        <mxCell id="dvD0Abc87riAn_uQM0Sn-111" value="" style="endArrow=none;html=1;rounded=0;exitX=1;exitY=0.25;exitDx=0;exitDy=0;entryX=0;entryY=0.5;entryDx=0;entryDy=0;" parent="1" source="dvD0Abc87riAn_uQM0Sn-158" target="dvD0Abc87riAn_uQM0Sn-23" edge="1">
          <mxGeometry width="50" height="50" relative="1" as="geometry">
            <mxPoint x="470" y="534.81" as="sourcePoint" />
            <mxPoint x="926" y="534.81" as="targetPoint" />
          </mxGeometry>
        </mxCell>
        <mxCell id="dvD0Abc87riAn_uQM0Sn-112" value="" style="endArrow=none;html=1;rounded=0;exitX=1.013;exitY=0.446;exitDx=0;exitDy=0;entryX=0;entryY=0.5;entryDx=0;entryDy=0;exitPerimeter=0;" parent="1" source="dvD0Abc87riAn_uQM0Sn-158" target="dvD0Abc87riAn_uQM0Sn-24" edge="1">
          <mxGeometry width="50" height="50" relative="1" as="geometry">
            <mxPoint x="470" y="574.81" as="sourcePoint" />
            <mxPoint x="926" y="574" as="targetPoint" />
          </mxGeometry>
        </mxCell>
        <mxCell id="dvD0Abc87riAn_uQM0Sn-113" value="" style="endArrow=none;html=1;rounded=0;entryX=0;entryY=0.5;entryDx=0;entryDy=0;" parent="1" target="dvD0Abc87riAn_uQM0Sn-25" edge="1">
          <mxGeometry width="50" height="50" relative="1" as="geometry">
            <mxPoint x="440" y="615" as="sourcePoint" />
            <mxPoint x="926" y="614.31" as="targetPoint" />
          </mxGeometry>
        </mxCell>
        <mxCell id="dvD0Abc87riAn_uQM0Sn-114" value="" style="endArrow=none;html=1;rounded=0;exitX=0.99;exitY=0.856;exitDx=0;exitDy=0;entryX=0;entryY=0.5;entryDx=0;entryDy=0;exitPerimeter=0;" parent="1" source="dvD0Abc87riAn_uQM0Sn-158" target="dvD0Abc87riAn_uQM0Sn-26" edge="1">
          <mxGeometry width="50" height="50" relative="1" as="geometry">
            <mxPoint x="470" y="654.81" as="sourcePoint" />
            <mxPoint x="926" y="654.31" as="targetPoint" />
          </mxGeometry>
        </mxCell>
        <mxCell id="dvD0Abc87riAn_uQM0Sn-123" value="`-1`" style="text;html=1;align=center;verticalAlign=middle;whiteSpace=wrap;rounded=0;fontSize=16;rotation=0;" parent="1" vertex="1">
          <mxGeometry x="673.25" y="535" width="60" height="30" as="geometry" />
        </mxCell>
        <mxCell id="dvD0Abc87riAn_uQM0Sn-124" value="`-1`" style="text;html=1;align=center;verticalAlign=middle;whiteSpace=wrap;rounded=0;fontSize=16;" parent="1" vertex="1">
          <mxGeometry x="673.25" y="575" width="60" height="30" as="geometry" />
        </mxCell>
        <mxCell id="dvD0Abc87riAn_uQM0Sn-125" value="`-1`" style="text;html=1;align=center;verticalAlign=middle;whiteSpace=wrap;rounded=0;fontSize=16;" parent="1" vertex="1">
          <mxGeometry x="673.25" y="615" width="60" height="30" as="geometry" />
        </mxCell>
        <mxCell id="dvD0Abc87riAn_uQM0Sn-126" value="`-1`" style="text;html=1;align=center;verticalAlign=middle;whiteSpace=wrap;rounded=0;fontSize=16;" parent="1" vertex="1">
          <mxGeometry x="673.25" y="655" width="60" height="30" as="geometry" />
        </mxCell>
        <mxCell id="dvD0Abc87riAn_uQM0Sn-128" value="" style="ellipse;whiteSpace=wrap;html=1;aspect=fixed;" parent="1" vertex="1">
          <mxGeometry x="463.25" y="525" width="20" height="20" as="geometry" />
        </mxCell>
        <mxCell id="dvD0Abc87riAn_uQM0Sn-129" value="" style="ellipse;whiteSpace=wrap;html=1;aspect=fixed;" parent="1" vertex="1">
          <mxGeometry x="463.25" y="565" width="20" height="20" as="geometry" />
        </mxCell>
        <mxCell id="dvD0Abc87riAn_uQM0Sn-130" value="" style="ellipse;whiteSpace=wrap;html=1;aspect=fixed;" parent="1" vertex="1">
          <mxGeometry x="463.25" y="605" width="20" height="20" as="geometry" />
        </mxCell>
        <mxCell id="dvD0Abc87riAn_uQM0Sn-131" value="" style="ellipse;whiteSpace=wrap;html=1;aspect=fixed;" parent="1" vertex="1">
          <mxGeometry x="463.25" y="645" width="20" height="20" as="geometry" />
        </mxCell>
        <mxCell id="dvD0Abc87riAn_uQM0Sn-132" value="" style="endArrow=none;html=1;rounded=0;exitX=1;exitY=0.5;exitDx=0;exitDy=0;" parent="1" source="dvD0Abc87riAn_uQM0Sn-84" edge="1">
          <mxGeometry width="50" height="50" relative="1" as="geometry">
            <mxPoint x="300" y="365" as="sourcePoint" />
            <mxPoint x="310" y="365" as="targetPoint" />
            <Array as="points" />
          </mxGeometry>
        </mxCell>
        <mxCell id="dvD0Abc87riAn_uQM0Sn-135" value="" style="endArrow=none;html=1;rounded=0;exitX=1;exitY=0.5;exitDx=0;exitDy=0;" parent="1" edge="1">
          <mxGeometry width="50" height="50" relative="1" as="geometry">
            <mxPoint x="290" y="405" as="sourcePoint" />
            <mxPoint x="310" y="405" as="targetPoint" />
            <Array as="points" />
          </mxGeometry>
        </mxCell>
        <mxCell id="dvD0Abc87riAn_uQM0Sn-136" value="" style="endArrow=none;html=1;rounded=0;exitX=1;exitY=1;exitDx=0;exitDy=0;" parent="1" edge="1">
          <mxGeometry width="50" height="50" relative="1" as="geometry">
            <mxPoint x="290" y="445" as="sourcePoint" />
            <mxPoint x="310" y="445" as="targetPoint" />
            <Array as="points" />
          </mxGeometry>
        </mxCell>
        <mxCell id="dvD0Abc87riAn_uQM0Sn-158" value="4 点 DFT" style="rounded=0;whiteSpace=wrap;html=1;fillColor=none;strokeColor=#EA6B66;" parent="1" vertex="1">
          <mxGeometry x="310" y="485" width="130" height="200" as="geometry" />
        </mxCell>
        <mxCell id="dvD0Abc87riAn_uQM0Sn-216" value="&lt;font style=&quot;font-size: 12px;&quot;&gt;添字の偶奇で 2 分割&lt;/font&gt;" style="text;html=1;align=center;verticalAlign=middle;whiteSpace=wrap;rounded=0;fontSize=16;" parent="1" vertex="1">
          <mxGeometry x="179.61" y="265" width="150" height="30" as="geometry" />
        </mxCell>
        <mxCell id="dvD0Abc87riAn_uQM0Sn-218" value="" style="endArrow=none;html=1;rounded=0;exitX=1;exitY=1;exitDx=0;exitDy=0;" parent="1" edge="1">
          <mxGeometry width="50" height="50" relative="1" as="geometry">
            <mxPoint x="280" y="655" as="sourcePoint" />
            <mxPoint x="310" y="655" as="targetPoint" />
            <Array as="points" />
          </mxGeometry>
        </mxCell>
        <mxCell id="dvD0Abc87riAn_uQM0Sn-219" value="" style="endArrow=none;html=1;rounded=0;exitX=1;exitY=0.5;exitDx=0;exitDy=0;entryX=0;entryY=0.5;entryDx=0;entryDy=0;" parent="1" edge="1">
          <mxGeometry width="50" height="50" relative="1" as="geometry">
            <mxPoint x="280" y="615" as="sourcePoint" />
            <mxPoint x="310" y="615" as="targetPoint" />
            <Array as="points" />
          </mxGeometry>
        </mxCell>
        <mxCell id="dvD0Abc87riAn_uQM0Sn-220" value="" style="endArrow=none;html=1;rounded=0;exitX=1;exitY=0.5;exitDx=0;exitDy=0;" parent="1" edge="1">
          <mxGeometry width="50" height="50" relative="1" as="geometry">
            <mxPoint x="280" y="575" as="sourcePoint" />
            <mxPoint x="310" y="575" as="targetPoint" />
            <Array as="points" />
          </mxGeometry>
        </mxCell>
        <mxCell id="dvD0Abc87riAn_uQM0Sn-221" value="" style="endArrow=none;html=1;rounded=0;exitX=1;exitY=0.5;exitDx=0;exitDy=0;entryX=0;entryY=0.5;entryDx=0;entryDy=0;" parent="1" edge="1">
          <mxGeometry width="50" height="50" relative="1" as="geometry">
            <mxPoint x="280" y="535" as="sourcePoint" />
            <mxPoint x="310" y="535" as="targetPoint" />
            <Array as="points" />
          </mxGeometry>
        </mxCell>
        <mxCell id="dvD0Abc87riAn_uQM0Sn-222" value="" style="ellipse;whiteSpace=wrap;html=1;aspect=fixed;fillColor=#dae8fc;strokeColor=#6c8ebf;" parent="1" vertex="1">
          <mxGeometry x="270" y="525" width="20" height="20" as="geometry" />
        </mxCell>
        <mxCell id="dvD0Abc87riAn_uQM0Sn-223" value="" style="ellipse;whiteSpace=wrap;html=1;aspect=fixed;" parent="1" vertex="1">
          <mxGeometry x="270" y="565" width="20" height="20" as="geometry" />
        </mxCell>
        <mxCell id="dvD0Abc87riAn_uQM0Sn-224" value="" style="ellipse;whiteSpace=wrap;html=1;aspect=fixed;fillColor=#dae8fc;strokeColor=#6c8ebf;" parent="1" vertex="1">
          <mxGeometry x="270" y="605" width="20" height="20" as="geometry" />
        </mxCell>
        <mxCell id="dvD0Abc87riAn_uQM0Sn-225" value="" style="ellipse;whiteSpace=wrap;html=1;aspect=fixed;" parent="1" vertex="1">
          <mxGeometry x="270" y="645" width="20" height="20" as="geometry" />
        </mxCell>
        <mxCell id="kW-a0Cstb3fpqHScpxs_-18" value="" style="rounded=0;whiteSpace=wrap;html=1;fillColor=none;strokeColor=#9673a6;" parent="1" vertex="1">
          <mxGeometry x="500" y="305" width="250" height="391" as="geometry" />
        </mxCell>
        <mxCell id="kW-a0Cstb3fpqHScpxs_-20" value="`x_0`" style="text;html=1;align=center;verticalAlign=middle;whiteSpace=wrap;rounded=0;fontSize=16;" parent="1" vertex="1">
          <mxGeometry x="179.61" y="290" width="60" height="30" as="geometry" />
        </mxCell>
        <mxCell id="kW-a0Cstb3fpqHScpxs_-21" value="&lt;sup style=&quot;font-size: 17px;&quot;&gt;`x_1`&lt;/sup&gt;" style="text;html=1;align=center;verticalAlign=middle;whiteSpace=wrap;rounded=0;fontSize=17;" parent="1" vertex="1">
          <mxGeometry x="179.61" y="345" width="60" height="30" as="geometry" />
        </mxCell>
        <mxCell id="kW-a0Cstb3fpqHScpxs_-22" value="`x_2`" style="text;html=1;align=center;verticalAlign=middle;whiteSpace=wrap;rounded=0;fontSize=16;" parent="1" vertex="1">
          <mxGeometry x="179.61" y="395" width="60" height="30" as="geometry" />
        </mxCell>
        <mxCell id="kW-a0Cstb3fpqHScpxs_-23" value="`x_3`" style="text;html=1;align=center;verticalAlign=middle;whiteSpace=wrap;rounded=0;fontSize=16;" parent="1" vertex="1">
          <mxGeometry x="179.61" y="440" width="60" height="30" as="geometry" />
        </mxCell>
        <mxCell id="kW-a0Cstb3fpqHScpxs_-24" value="`x_4`" style="text;html=1;align=center;verticalAlign=middle;whiteSpace=wrap;rounded=0;fontSize=16;" parent="1" vertex="1">
          <mxGeometry x="179.61" y="491" width="60" height="30" as="geometry" />
        </mxCell>
        <mxCell id="kW-a0Cstb3fpqHScpxs_-25" value="`x_5`" style="text;html=1;align=center;verticalAlign=middle;whiteSpace=wrap;rounded=0;fontSize=16;" parent="1" vertex="1">
          <mxGeometry x="179.61" y="535" width="60" height="30" as="geometry" />
        </mxCell>
        <mxCell id="kW-a0Cstb3fpqHScpxs_-26" value="`x_6`" style="text;html=1;align=center;verticalAlign=middle;whiteSpace=wrap;rounded=0;fontSize=16;" parent="1" vertex="1">
          <mxGeometry x="179.61" y="585" width="60" height="30" as="geometry" />
        </mxCell>
        <mxCell id="kW-a0Cstb3fpqHScpxs_-27" value="`x_7`" style="text;html=1;align=center;verticalAlign=middle;whiteSpace=wrap;rounded=0;fontSize=16;" parent="1" vertex="1">
          <mxGeometry x="179.61" y="630" width="60" height="30" as="geometry" />
        </mxCell>
        <mxCell id="kW-a0Cstb3fpqHScpxs_-28" value="&lt;span style=&quot;font-size: 12px;&quot;&gt;バタフライ演算&lt;/span&gt;" style="text;html=1;align=center;verticalAlign=middle;whiteSpace=wrap;rounded=0;fontSize=16;" parent="1" vertex="1">
          <mxGeometry x="560" y="280" width="150" height="30" as="geometry" />
        </mxCell>
        <mxCell id="yjtvzsMUQVjURmZ7rFyn-1" value="&lt;span style=&quot;font-size: 16px;&quot;&gt;8 点 DFT の気持ち:&lt;/span&gt;" style="text;html=1;align=center;verticalAlign=middle;whiteSpace=wrap;rounded=0;" vertex="1" parent="1">
          <mxGeometry x="348.25" y="210" width="250" height="30" as="geometry" />
        </mxCell>
      </root>
    </mxGraphModel>
  </diagram>
</mxfile>
